<svg width="283" height="86" viewBox="0 0 283 86" fill="none" xmlns="http://www.w3.org/2000/svg">

<g clip-path="url(#clip0)">
<g filter="url(#filter0_d)">
<path d="M107.936 38.3369C107.936 37.6126 107.748 37.0674 107.374 36.7012C107.008 36.3268 106.336 35.9403 105.36 35.5415C103.578 34.866 102.296 34.0767 101.515 33.1733C100.733 32.2619 100.343 31.1877 100.343 29.9507C100.343 28.4533 100.872 27.2529 101.93 26.3496C102.996 25.4382 104.347 24.9824 105.982 24.9824C107.073 24.9824 108.045 25.2144 108.9 25.6782C109.754 26.134 110.41 26.7809 110.865 27.6191C111.329 28.4574 111.561 29.4095 111.561 30.4756H107.984C107.984 29.6455 107.805 29.0148 107.447 28.5835C107.097 28.144 106.589 27.9243 105.921 27.9243C105.295 27.9243 104.806 28.1115 104.457 28.4858C104.107 28.8521 103.932 29.3485 103.932 29.9751C103.932 30.4634 104.127 30.9069 104.518 31.3057C104.908 31.6963 105.6 32.1032 106.593 32.5264C108.326 33.153 109.583 33.922 110.365 34.8335C111.154 35.745 111.549 36.9046 111.549 38.3125C111.549 39.8587 111.056 41.0672 110.072 41.938C109.087 42.8088 107.748 43.2441 106.056 43.2441C104.908 43.2441 103.862 43.0081 102.918 42.5361C101.974 42.0641 101.234 41.3887 100.697 40.5098C100.168 39.6309 99.9033 38.5933 99.9033 37.397H103.504C103.504 38.4224 103.704 39.167 104.103 39.6309C104.501 40.0947 105.152 40.3267 106.056 40.3267C107.309 40.3267 107.936 39.6634 107.936 38.3369ZM117.005 29.792L117.103 31.0127C117.876 30.0361 118.897 29.5479 120.167 29.5479C121.485 29.5479 122.417 30.1419 122.962 31.3301C123.719 30.1419 124.798 29.5479 126.197 29.5479C128.508 29.5479 129.693 31.147 129.75 34.3452V43H126.295V34.5649C126.295 33.8 126.189 33.2547 125.978 32.9292C125.766 32.6037 125.408 32.4409 124.903 32.4409C124.26 32.4409 123.78 32.8356 123.463 33.625L123.487 34.04V43H120.033V34.5894C120.033 33.8325 119.931 33.2873 119.728 32.9536C119.524 32.6118 119.162 32.4409 118.641 32.4409C118.047 32.4409 117.575 32.7624 117.225 33.4053V43H113.771V29.792H117.005ZM138.587 43C138.49 42.7965 138.392 42.4548 138.294 41.9746C137.676 42.821 136.838 43.2441 135.78 43.2441C134.673 43.2441 133.753 42.8779 133.021 42.1455C132.297 41.4131 131.935 40.465 131.935 39.3013C131.935 37.9178 132.374 36.8477 133.253 36.0908C134.14 35.334 135.414 34.9474 137.074 34.9312H138.124V33.8691C138.124 33.2751 138.022 32.856 137.818 32.6118C137.615 32.3677 137.318 32.2456 136.927 32.2456C136.065 32.2456 135.633 32.7502 135.633 33.7593H132.179C132.179 32.5386 132.634 31.5335 133.546 30.7441C134.465 29.9466 135.625 29.5479 137.025 29.5479C138.473 29.5479 139.592 29.9263 140.382 30.6831C141.179 31.4318 141.578 32.506 141.578 33.9058V40.1191C141.594 41.2585 141.757 42.1496 142.066 42.7925V43H138.587ZM136.549 40.5342C136.931 40.5342 137.257 40.4569 137.525 40.3022C137.794 40.1476 137.993 39.9645 138.124 39.7529V37.0063H137.293C136.708 37.0063 136.244 37.1935 135.902 37.5679C135.568 37.9422 135.401 38.4427 135.401 39.0693C135.401 40.0459 135.784 40.5342 136.549 40.5342ZM150.599 33.1245L149.452 33.0269C148.508 33.0269 147.869 33.4419 147.535 34.272V43H144.068V29.792H147.328L147.425 31.2202C147.971 30.1053 148.723 29.5479 149.684 29.5479C150.074 29.5479 150.392 29.6007 150.636 29.7065L150.599 33.1245ZM157.008 26.5449V29.792H158.778V32.3921H157.008V38.9473C157.008 39.4681 157.077 39.8262 157.215 40.0215C157.362 40.2168 157.639 40.3145 158.045 40.3145C158.379 40.3145 158.652 40.286 158.863 40.229L158.839 42.9146C158.253 43.1343 157.618 43.2441 156.935 43.2441C154.705 43.2441 153.578 41.9665 153.553 39.4111V32.3921H152.027V29.792H153.553V26.5449H157.008ZM166.615 43V25.2266H171.314C173.39 25.2266 175.042 25.8857 176.271 27.2041C177.507 28.5225 178.138 30.3291 178.163 32.624V35.5049C178.163 37.8405 177.544 39.6756 176.307 41.0103C175.078 42.3368 173.382 43 171.217 43H166.615ZM170.204 28.2173V40.0215H171.278C172.474 40.0215 173.316 39.7082 173.805 39.0815C174.293 38.4468 174.549 37.3563 174.574 35.8101V32.7217C174.574 31.0615 174.342 29.9059 173.878 29.2549C173.414 28.5957 172.625 28.2498 171.51 28.2173H170.204ZM185.914 43.2441C184.14 43.2441 182.757 42.7152 181.764 41.6572C180.771 40.5993 180.274 39.0856 180.274 37.1162V36.0664C180.274 33.9831 180.73 32.3758 181.642 31.2446C182.553 30.1134 183.859 29.5479 185.56 29.5479C187.22 29.5479 188.469 30.0809 189.308 31.147C190.146 32.2049 190.573 33.7756 190.589 35.8589V37.5557H183.717C183.766 38.5322 183.981 39.2484 184.364 39.7041C184.746 40.1517 185.336 40.3755 186.134 40.3755C187.289 40.3755 188.254 39.9808 189.027 39.1914L190.382 41.2788C189.959 41.8647 189.344 42.3408 188.539 42.707C187.733 43.0651 186.858 43.2441 185.914 43.2441ZM183.741 35.1387H187.196V34.8213C187.18 34.0319 187.049 33.4338 186.805 33.0269C186.561 32.62 186.138 32.4165 185.536 32.4165C184.933 32.4165 184.494 32.6322 184.217 33.0635C183.949 33.4948 183.79 34.1865 183.741 35.1387ZM196.705 38.1172L198.377 29.792H201.979L198.353 43H195.057L191.419 29.792H195.033L196.705 38.1172ZM207.228 43H203.761V29.792H207.228V43ZM203.602 26.374C203.602 25.8369 203.773 25.3975 204.115 25.0557C204.457 24.7139 204.912 24.543 205.482 24.543C206.052 24.543 206.507 24.7139 206.849 25.0557C207.191 25.3975 207.362 25.8369 207.362 26.374C207.362 26.903 207.191 27.3424 206.849 27.6924C206.515 28.0423 206.06 28.2173 205.482 28.2173C204.904 28.2173 204.444 28.0423 204.103 27.6924C203.769 27.3424 203.602 26.903 203.602 26.374ZM214.674 40.3755C215.675 40.3755 216.183 39.7244 216.2 38.4224H219.447C219.431 39.8628 218.987 41.0265 218.116 41.9136C217.245 42.8006 216.122 43.2441 214.747 43.2441C213.046 43.2441 211.748 42.7152 210.853 41.6572C209.958 40.5993 209.502 39.0409 209.486 36.9819V35.9321C209.486 33.8569 209.925 32.2741 210.804 31.1836C211.691 30.0931 212.997 29.5479 214.723 29.5479C216.179 29.5479 217.327 29.9995 218.165 30.9028C219.003 31.798 219.431 33.0716 219.447 34.7236H216.2C216.192 33.9831 216.069 33.4134 215.833 33.0146C215.597 32.6159 215.207 32.4165 214.662 32.4165C214.059 32.4165 213.628 32.6322 213.368 33.0635C213.107 33.4867 212.969 34.3127 212.953 35.5415V36.8843C212.953 37.9585 213.006 38.7113 213.111 39.1426C213.217 39.5658 213.392 39.8791 213.636 40.0825C213.88 40.2778 214.226 40.3755 214.674 40.3755ZM226.734 43.2441C224.96 43.2441 223.577 42.7152 222.584 41.6572C221.591 40.5993 221.095 39.0856 221.095 37.1162V36.0664C221.095 33.9831 221.55 32.3758 222.462 31.2446C223.373 30.1134 224.68 29.5479 226.38 29.5479C228.041 29.5479 229.29 30.0809 230.128 31.147C230.966 32.2049 231.393 33.7756 231.41 35.8589V37.5557H224.537C224.586 38.5322 224.802 39.2484 225.184 39.7041C225.567 40.1517 226.157 40.3755 226.954 40.3755C228.11 40.3755 229.074 39.9808 229.847 39.1914L231.202 41.2788C230.779 41.8647 230.165 42.3408 229.359 42.707C228.553 43.0651 227.678 43.2441 226.734 43.2441ZM224.562 35.1387H228.016V34.8213C228 34.0319 227.87 33.4338 227.625 33.0269C227.381 32.62 226.958 32.4165 226.356 32.4165C225.754 32.4165 225.314 32.6322 225.038 33.0635C224.769 33.4948 224.61 34.1865 224.562 35.1387Z" fill="white"/>
<path d="M101.947 58.9609L103.236 54.6602H104.754L102.234 61.9609C101.848 63.0273 101.191 63.5605 100.266 63.5605C100.059 63.5605 99.8301 63.5254 99.5801 63.4551V62.3535L99.8496 62.3711C100.209 62.3711 100.479 62.3047 100.658 62.1719C100.842 62.043 100.986 61.8242 101.092 61.5156L101.297 60.9707L99.0703 54.6602H100.605L101.947 58.9609ZM109.342 59.248L111.217 54.6602H112.998V61H111.574V56.8047L109.828 61H108.861L107.109 56.7812V61H105.686V54.6602H107.479L109.342 59.248ZM119.971 61H118.547V58.4395H116.08V61H114.656V54.6602H116.08V57.3027H118.547V54.6602H119.971V61ZM123.023 56.6758H124.418C124.938 56.6758 125.391 56.7656 125.777 56.9453C126.164 57.125 126.457 57.377 126.656 57.7012C126.859 58.0254 126.961 58.4023 126.961 58.832C126.961 59.4844 126.73 60.0078 126.27 60.4023C125.809 60.7969 125.195 60.9961 124.43 61H121.6V54.6602H123.023V56.6758ZM129.439 61H128.016V54.6602H129.439V61ZM123.023 57.8184V59.8633H124.412C124.76 59.8633 125.033 59.7773 125.232 59.6055C125.436 59.4297 125.537 59.1816 125.537 58.8613C125.537 58.541 125.438 58.2891 125.238 58.1055C125.043 57.918 124.777 57.8223 124.441 57.8184H123.023ZM133.939 61.1172C133.037 61.1172 132.305 60.834 131.742 60.2676C131.184 59.6973 130.904 58.9395 130.904 57.9941V57.8184C130.904 57.1855 131.025 56.6211 131.268 56.125C131.514 55.625 131.857 55.2363 132.299 54.959C132.74 54.6816 133.232 54.543 133.775 54.543C134.639 54.543 135.305 54.8184 135.773 55.3691C136.246 55.9199 136.482 56.6992 136.482 57.707V58.2812H132.34C132.383 58.8047 132.557 59.2188 132.861 59.5234C133.17 59.8281 133.557 59.9805 134.021 59.9805C134.674 59.9805 135.205 59.7168 135.615 59.1895L136.383 59.9219C136.129 60.3008 135.789 60.5957 135.363 60.8066C134.941 61.0137 134.467 61.1172 133.939 61.1172ZM133.77 55.6855C133.379 55.6855 133.062 55.8223 132.82 56.0957C132.582 56.3691 132.43 56.75 132.363 57.2383H135.076V57.1328C135.045 56.6562 134.918 56.2969 134.695 56.0547C134.473 55.8086 134.164 55.6855 133.77 55.6855ZM145.57 55.791H143.514V61H142.09V55.791H140.057V54.6602H145.57V55.791ZM148.939 61.1172C148.037 61.1172 147.305 60.834 146.742 60.2676C146.184 59.6973 145.904 58.9395 145.904 57.9941V57.8184C145.904 57.1855 146.025 56.6211 146.268 56.125C146.514 55.625 146.857 55.2363 147.299 54.959C147.74 54.6816 148.232 54.543 148.775 54.543C149.639 54.543 150.305 54.8184 150.773 55.3691C151.246 55.9199 151.482 56.6992 151.482 57.707V58.2812H147.34C147.383 58.8047 147.557 59.2188 147.861 59.5234C148.17 59.8281 148.557 59.9805 149.021 59.9805C149.674 59.9805 150.205 59.7168 150.615 59.1895L151.383 59.9219C151.129 60.3008 150.789 60.5957 150.363 60.8066C149.941 61.0137 149.467 61.1172 148.939 61.1172ZM148.77 55.6855C148.379 55.6855 148.062 55.8223 147.82 56.0957C147.582 56.3691 147.43 56.75 147.363 57.2383H150.076V57.1328C150.045 56.6562 149.918 56.2969 149.695 56.0547C149.473 55.8086 149.164 55.6855 148.77 55.6855ZM154.869 56.7461L156.076 54.6602H157.658L155.719 57.7832L157.723 61H156.152L154.887 58.832L153.627 61H152.045L154.049 57.7832L152.115 54.6602H153.686L154.869 56.7461ZM163.998 61H162.574V58.4395H160.107V61H158.684V54.6602H160.107V57.3027H162.574V54.6602H163.998V61ZM165.252 57.7715C165.252 57.1504 165.375 56.5918 165.621 56.0957C165.867 55.5957 166.213 55.2129 166.658 54.9473C167.104 54.6777 167.615 54.543 168.193 54.543C169.049 54.543 169.742 54.8184 170.273 55.3691C170.809 55.9199 171.098 56.6504 171.141 57.5605L171.146 57.8945C171.146 58.5195 171.025 59.0781 170.783 59.5703C170.545 60.0625 170.201 60.4434 169.752 60.7129C169.307 60.9824 168.791 61.1172 168.205 61.1172C167.311 61.1172 166.594 60.8203 166.055 60.2266C165.52 59.6289 165.252 58.834 165.252 57.8418V57.7715ZM166.676 57.8945C166.676 58.5469 166.811 59.0586 167.08 59.4297C167.35 59.7969 167.725 59.9805 168.205 59.9805C168.686 59.9805 169.059 59.793 169.324 59.418C169.594 59.043 169.729 58.4941 169.729 57.7715C169.729 57.1309 169.59 56.623 169.312 56.248C169.039 55.873 168.666 55.6855 168.193 55.6855C167.729 55.6855 167.359 55.8711 167.086 56.2422C166.812 56.6094 166.676 57.1602 166.676 57.8945ZM177.645 54.6602V61H176.221V55.8086H174.428L174.311 58.0176C174.236 59.0801 174.031 59.8438 173.695 60.3086C173.363 60.7695 172.854 61 172.166 61H171.727L171.721 59.8164L172.014 59.7871C172.326 59.7441 172.553 59.5547 172.693 59.2188C172.838 58.8789 172.93 58.2617 172.969 57.3672L173.086 54.6602H177.645ZM178.893 57.7715C178.893 57.1504 179.016 56.5918 179.262 56.0957C179.508 55.5957 179.854 55.2129 180.299 54.9473C180.744 54.6777 181.256 54.543 181.834 54.543C182.689 54.543 183.383 54.8184 183.914 55.3691C184.449 55.9199 184.738 56.6504 184.781 57.5605L184.787 57.8945C184.787 58.5195 184.666 59.0781 184.424 59.5703C184.186 60.0625 183.842 60.4434 183.393 60.7129C182.947 60.9824 182.432 61.1172 181.846 61.1172C180.951 61.1172 180.234 60.8203 179.695 60.2266C179.16 59.6289 178.893 58.834 178.893 57.8418V57.7715ZM180.316 57.8945C180.316 58.5469 180.451 59.0586 180.721 59.4297C180.99 59.7969 181.365 59.9805 181.846 59.9805C182.326 59.9805 182.699 59.793 182.965 59.418C183.234 59.043 183.369 58.4941 183.369 57.7715C183.369 57.1309 183.23 56.623 182.953 56.248C182.68 55.873 182.307 55.6855 181.834 55.6855C181.369 55.6855 181 55.8711 180.727 56.2422C180.453 56.6094 180.316 57.1602 180.316 57.8945ZM190.213 55.8086H187.459V61H186.041V54.6602H190.213V55.8086ZM194.977 54.6602H196.395V61H194.977V56.7695L192.492 61H191.074V54.6602H192.492V58.8906L194.977 54.6602ZM201.867 54.6602H203.285V61H201.867V56.7695L199.383 61H197.965V54.6602H199.383V58.8906L201.867 54.6602Z" fill="#788891"/>
<path d="M63.0668 27.8665C64.1952 27.8665 65.1485 28.5936 65.5073 29.5998H74.4929C74.8517 28.5936 75.805 27.8665 76.9334 27.8665C78.3669 27.8665 79.5334 29.033 79.5334 30.4664C79.5334 31.8999 78.3669 33.0664 76.9334 33.0664C75.805 33.0664 74.8517 32.3392 74.4929 31.3331H65.5064C65.1476 32.3392 64.1943 33.0664 63.0659 33.0664C61.6324 33.0664 60.4659 31.8999 60.4659 30.4664C60.4659 29.033 61.6333 27.8665 63.0668 27.8665ZM76.9334 31.3331C77.411 31.3331 77.8001 30.9448 77.8001 30.4664C77.8001 29.988 77.411 29.5998 76.9334 29.5998C76.4559 29.5998 76.0668 29.988 76.0668 30.4664C76.0668 30.9448 76.4559 31.3331 76.9334 31.3331ZM63.0668 31.3331C63.5443 31.3331 63.9334 30.9448 63.9334 30.4664C63.9334 29.988 63.5443 29.5998 63.0668 29.5998C62.5892 29.5998 62.2001 29.988 62.2001 30.4664C62.2001 30.9448 62.5892 31.3331 63.0668 31.3331Z" fill="#00B2FF"/>
<path d="M56.1333 33.2259V27.8665C56.1333 27.636 56.2243 27.4158 56.3872 27.2538L59.8539 23.7872C60.0159 23.6242 60.2369 23.5332 60.4666 23.5332H63.2261C63.5849 22.527 64.5382 21.7999 65.6666 21.7999C67.1001 21.7999 68.2666 22.9664 68.2666 24.3999C68.2666 25.8333 67.1001 26.9998 65.6666 26.9998C64.5382 26.9998 63.5849 26.2727 63.2261 25.2665H60.8254L57.8666 28.2253V33.2259C58.8728 33.5847 59.5999 34.538 59.5999 35.6664C59.5999 37.0998 58.4334 38.2663 56.9999 38.2663C55.5665 38.2663 54.3999 37.0998 54.3999 35.6664C54.3999 34.538 55.1271 33.5847 56.1333 33.2259ZM65.6666 25.2665C66.1441 25.2665 66.5333 24.8783 66.5333 24.3999C66.5333 23.9215 66.1441 23.5332 65.6666 23.5332C65.1891 23.5332 64.7999 23.9215 64.7999 24.3999C64.7999 24.8783 65.1891 25.2665 65.6666 25.2665ZM56.9999 36.533C57.4775 36.533 57.8666 36.1448 57.8666 35.6664C57.8666 35.188 57.4775 34.7997 56.9999 34.7997C56.5224 34.7997 56.1333 35.188 56.1333 35.6664C56.1333 36.1448 56.5224 36.533 56.9999 36.533Z" fill="#00B2FF"/>
<path d="M40.5333 36.533C40.9337 36.533 41.3081 36.6309 41.647 36.7938L43.1333 35.3075V26.9998C43.1333 26.7693 43.2243 26.5491 43.3873 26.3871L52.0609 17.7136C51.8979 17.3747 51.8 17.0003 51.8 16.6C51.8 15.1665 52.9665 14 54.4 14C55.8335 14 57 15.1665 57 16.6C57 18.0334 55.8335 19.1999 54.4 19.1999C53.9996 19.1999 53.6252 19.102 53.2863 18.9391L44.8667 27.3586V35.6663C44.8667 35.8968 44.7757 36.117 44.6127 36.279L42.8725 38.0193C43.0354 38.3581 43.1333 38.7325 43.1333 39.1329C43.1333 40.5664 41.9668 41.7329 40.5333 41.7329C39.0999 41.7329 37.9333 40.5664 37.9333 39.1329C37.9333 37.6995 39.0999 36.533 40.5333 36.533ZM54.4 17.4666C54.8775 17.4666 55.2667 17.0783 55.2667 16.6C55.2667 16.1216 54.8775 15.7333 54.4 15.7333C53.9225 15.7333 53.5333 16.1216 53.5333 16.6C53.5333 17.0783 53.9225 17.4666 54.4 17.4666ZM40.5333 39.9996C41.0109 39.9996 41.4 39.6113 41.4 39.1329C41.4 38.6545 41.0109 38.2663 40.5333 38.2663C40.0558 38.2663 39.6667 38.6545 39.6667 39.1329C39.6667 39.6113 40.0558 39.9996 40.5333 39.9996Z" fill="#00B2FF"/>
<path d="M32.7333 26.2926V22.6665C32.7333 22.436 32.8243 22.2159 32.9872 22.0538L39.0539 15.9872C39.216 15.8243 39.437 15.7333 39.6666 15.7333H44.1594C44.5182 14.7271 45.4716 14 46.6 14C48.0334 14 49.2 15.1665 49.2 16.6C49.2 18.0334 48.0334 19.1999 46.6 19.1999C45.4716 19.1999 44.5182 18.4728 44.1594 17.4666H40.0254L34.4666 23.0253V26.2926C35.4728 26.6514 36.2 27.6047 36.2 28.7331C36.2 30.1665 35.0334 31.333 33.6 31.333C32.1665 31.333 31 30.1665 31 28.7331C31 27.6047 31.7271 26.6514 32.7333 26.2926ZM46.6 17.4666C47.0775 17.4666 47.4666 17.0783 47.4666 16.6C47.4666 16.1216 47.0775 15.7333 46.6 15.7333C46.1224 15.7333 45.7333 16.1216 45.7333 16.6C45.7333 17.0783 46.1224 17.4666 46.6 17.4666ZM33.6 29.5997C34.0775 29.5997 34.4666 29.2115 34.4666 28.7331C34.4666 28.2547 34.0775 27.8664 33.6 27.8664C33.1224 27.8664 32.7333 28.2547 32.7333 28.7331C32.7333 29.2115 33.1224 29.5997 33.6 29.5997Z" fill="#00B2FF"/>
<path d="M44.8658 60.9595V48.5066C43.8604 48.1478 43.1333 47.1945 43.1333 46.0661C43.1333 44.6327 44.2998 43.4661 45.7333 43.4661C46.8617 43.4661 47.815 44.1933 48.1738 45.1995H57.1594C57.5182 44.1933 58.4716 43.4661 59.6 43.4661C60.7284 43.4661 61.6817 44.1933 62.0405 45.1995H67.0412L70.2608 41.9798C70.0979 41.641 70 41.2666 70 40.8662C70 39.4327 71.1665 38.2662 72.6 38.2662C74.0334 38.2662 75.2 39.4327 75.2 40.8662C75.2 42.2996 74.0334 43.4661 72.6 43.4661C72.1996 43.4661 71.8252 43.3682 71.4863 43.2053L68.0127 46.6788C67.8506 46.8418 67.6296 46.9328 67.4 46.9328H62.0405C61.6817 47.9389 60.7284 48.6661 59.6 48.6661C58.4716 48.6661 57.5182 47.9389 57.1594 46.9328H48.173C47.9112 47.6668 47.3332 48.2449 46.5991 48.5066V60.9595C47.6053 61.3183 48.3324 62.2716 48.3324 63.4C48.3324 64.8335 47.1659 66 45.7324 66C44.299 66 43.1324 64.8335 43.1324 63.4C43.1324 62.2716 43.8596 61.3183 44.8658 60.9595ZM72.6 41.7328C73.0775 41.7328 73.4666 41.3446 73.4666 40.8662C73.4666 40.3878 73.0775 39.9995 72.6 39.9995C72.1224 39.9995 71.7333 40.3878 71.7333 40.8662C71.7333 41.3446 72.1224 41.7328 72.6 41.7328ZM59.6 46.9328C60.0775 46.9328 60.4666 46.5445 60.4666 46.0661C60.4666 45.5877 60.0775 45.1995 59.6 45.1995C59.1224 45.1995 58.7333 45.5877 58.7333 46.0661C58.7333 46.5445 59.1224 46.9328 59.6 46.9328ZM45.7333 64.2658C46.2108 64.2658 46.6 63.8775 46.6 63.3991C46.6 62.9208 46.2108 62.5325 45.7333 62.5325C45.2558 62.5325 44.8666 62.9208 44.8666 63.3991C44.8666 63.8775 45.2558 64.2658 45.7333 64.2658ZM45.7333 46.9328C46.2108 46.9328 46.6 46.5445 46.6 46.0661C46.6 45.5877 46.2108 45.1995 45.7333 45.1995C45.2558 45.1995 44.8666 45.5877 44.8666 46.0661C44.8666 46.5445 45.2558 46.9328 45.7333 46.9328Z" fill="#00B2FF"/>
<path d="M49.2 31.4925V28.7331C49.2 28.5026 49.291 28.2824 49.4539 28.1204L59.8609 17.7136C59.6979 17.3747 59.6 17.0003 59.6 16.6C59.6 15.1665 60.7665 14 62.2 14C63.3284 14 64.2817 14.7271 64.6405 15.7333H68.2667C68.7451 15.7333 69.1333 16.1207 69.1333 16.6V18.8411L72.353 22.0607C72.6919 21.8978 73.0663 21.7999 73.4667 21.7999C74.9001 21.7999 76.0667 22.9664 76.0667 24.3998C76.0667 25.8333 74.9001 26.9998 73.4667 26.9998C72.0332 26.9998 70.8667 25.8333 70.8667 24.3998C70.8667 23.9994 70.9646 23.625 71.1275 23.2862L67.6539 19.8126C67.491 19.6506 67.4 19.4304 67.4 19.1999V17.4666H64.6405C64.2817 18.4728 63.3284 19.1999 62.2 19.1999C61.7996 19.1999 61.4252 19.102 61.0863 18.9391L50.9333 29.0919V31.4925C51.9395 31.8513 52.6667 32.8046 52.6667 33.933C52.6667 35.3664 51.5001 36.533 50.0667 36.533C48.6332 36.533 47.4667 35.3664 47.4667 33.933C47.4667 32.8046 48.1938 31.8513 49.2 31.4925ZM73.4667 25.2665C73.9442 25.2665 74.3333 24.8782 74.3333 24.3998C74.3333 23.9214 73.9442 23.5332 73.4667 23.5332C72.9891 23.5332 72.6 23.9214 72.6 24.3998C72.6 24.8782 72.9891 25.2665 73.4667 25.2665ZM62.2 17.4666C62.6775 17.4666 63.0667 17.0783 63.0667 16.6C63.0667 16.1216 62.6775 15.7333 62.2 15.7333C61.7225 15.7333 61.3333 16.1216 61.3333 16.6C61.3333 17.0783 61.7225 17.4666 62.2 17.4666ZM50.0667 34.7997C50.5442 34.7997 50.9333 34.4114 50.9333 33.933C50.9333 33.4546 50.5442 33.0663 50.0667 33.0663C49.5891 33.0663 49.2 33.4546 49.2 33.933C49.2 34.4114 49.5891 34.7997 50.0667 34.7997Z" fill="#00B2FF"/>
<path d="M51.8 38.2663C52.9284 38.2663 53.8817 38.9934 54.2405 39.9996H64.4412L69.3873 35.0536C69.5493 34.8906 69.7703 34.7997 70 34.7997H79.1745L81.2667 32.7076V25.6253L74.5803 18.9391C74.2415 19.102 73.8671 19.1999 73.4667 19.1999C72.0332 19.1999 70.8667 18.0334 70.8667 16.6C70.8667 15.1665 72.0332 14 73.4667 14C74.9001 14 76.0667 15.1665 76.0667 16.6C76.0667 17.0003 75.9687 17.3747 75.8058 17.7136L82.7461 24.6538C82.909 24.8158 83 25.0359 83 25.2665V33.0663C83 33.2969 82.909 33.517 82.7461 33.6791L80.1461 36.279C79.984 36.442 79.763 36.533 79.5333 36.533H70.3588L65.4127 41.4789C65.2507 41.6419 65.0297 41.7329 64.8 41.7329H54.2405C53.8817 42.7391 52.9284 43.4662 51.8 43.4662C50.3665 43.4662 49.2 42.2997 49.2 40.8662C49.2 39.4328 50.3665 38.2663 51.8 38.2663ZM73.4667 15.7333C72.9891 15.7333 72.6 16.1216 72.6 16.6C72.6 17.0783 72.9891 17.4666 73.4667 17.4666C73.9442 17.4666 74.3333 17.0783 74.3333 16.6C74.3333 16.1216 73.9442 15.7333 73.4667 15.7333ZM51.8 41.7329C52.2775 41.7329 52.6667 41.3446 52.6667 40.8662C52.6667 40.3878 52.2775 39.9996 51.8 39.9996C51.3225 39.9996 50.9333 40.3878 50.9333 40.8662C50.9333 41.3446 51.3225 41.7329 51.8 41.7329Z" fill="#00B2FF"/>
<path d="M33.6 34.7997C34.0004 34.7997 34.3748 34.8976 34.7136 35.0606L37.9333 31.841V26.8404C36.9271 26.4816 36.2 25.5283 36.2 24.3999C36.2 22.9664 37.3665 21.7999 38.8 21.7999C40.2334 21.7999 41.4 22.9664 41.4 24.3999C41.4 25.5283 40.6728 26.4816 39.6666 26.8404V32.1998C39.6666 32.4303 39.5756 32.6504 39.4127 32.8125L35.9391 36.286C36.102 36.6249 36.2 36.9993 36.2 37.3997C36.2 38.528 35.4728 39.4814 34.4666 39.8402V40.5075L41.146 47.1868C41.309 47.3488 41.4 47.569 41.4 47.7995V48.8256C42.4062 49.1844 43.1333 50.1377 43.1333 51.2661C43.1333 52.3945 42.4062 53.3478 41.4 53.7066V55.7597C42.4062 56.1185 43.1333 57.0718 43.1333 58.2002C43.1333 59.6336 41.9668 60.8001 40.5333 60.8001C39.0998 60.8001 37.9333 59.6336 37.9333 58.2002C37.9333 57.0718 38.6604 56.1185 39.6666 55.7597V53.7066C38.6604 53.3478 37.9333 52.3945 37.9333 51.2661C37.9333 50.1377 38.6604 49.1844 39.6666 48.8256V48.1583L32.9872 41.479C32.8243 41.3169 32.7333 41.0968 32.7333 40.8663V39.8402C31.7271 39.4814 31 38.528 31 37.3997C31 35.9662 32.1665 34.7997 33.6 34.7997ZM38.8 25.2665C39.2775 25.2665 39.6666 24.8783 39.6666 24.3999C39.6666 23.9215 39.2775 23.5332 38.8 23.5332C38.3224 23.5332 37.9333 23.9215 37.9333 24.3999C37.9333 24.8783 38.3224 25.2665 38.8 25.2665ZM40.5333 59.066C41.0108 59.066 41.4 58.6777 41.4 58.1993C41.4 57.7209 41.0108 57.3327 40.5333 57.3327C40.0558 57.3327 39.6666 57.7209 39.6666 58.1993C39.6666 58.6777 40.0558 59.066 40.5333 59.066ZM40.5333 52.1328C41.0108 52.1328 41.4 51.7445 41.4 51.2661C41.4 50.7877 41.0108 50.3995 40.5333 50.3995C40.0558 50.3995 39.6666 50.7877 39.6666 51.2661C39.6666 51.7445 40.0558 52.1328 40.5333 52.1328ZM33.6 38.2663C34.0775 38.2663 34.4666 37.8781 34.4666 37.3997C34.4666 36.9213 34.0775 36.533 33.6 36.533C33.1224 36.533 32.7333 36.9213 32.7333 37.3997C32.7333 37.8781 33.1224 38.2663 33.6 38.2663Z" fill="#00B2FF"/>
</g>
</g>
<defs>
<filter id="filter0_d" x="27" y="14" width="1419" height="763.09" filterUnits="userSpaceOnUse" color-interpolation-filters="sRGB">
<feFlood flood-opacity="0" result="BackgroundImageFix"/>
<feColorMatrix in="SourceAlpha" type="matrix" values="0 0 0 0 0 0 0 0 0 0 0 0 0 0 0 0 0 0 127 0"/>
<feOffset dy="4"/>
<feGaussianBlur stdDeviation="2"/>
<feColorMatrix type="matrix" values="0 0 0 0 0 0 0 0 0 0 0 0 0 0 0 0 0 0 0.25 0"/>
<feBlend mode="normal" in2="BackgroundImageFix" result="effect1_dropShadow"/>
<feBlend mode="normal" in="SourceGraphic" in2="effect1_dropShadow" result="shape"/>
</filter>
</defs>
</svg>
